# xmcd
#
# Track frame offsets: 
#        150
#        3190
#        19420
#        41531
#        54789
#        71364
#        92669
#        106430
#        119946
#        131797
#        143780
#        156334
#
# Disc length: 2354 seconds
#
# Revision: 0
# Processed by: cddbd v1.5.2PL0 Copyright (c) Steve Scherf et al.
# Submitted via: ExactAudioCopy v1.3
#
DISCID=a309300c
DTITLE=Jake Green Band - Rough Spring
DYEAR=2019
DGENRE=Blues
TTITLE0=Gonna Tell
TTITLE1=Night Train Calling
TTITLE2=Time Stands Still
TTITLE3=Old Yellow Moon
TTITLE4=Six Feet Down
TTITLE5=Rough Spring
TTITLE6=Looking for a Reason
TTITLE7=Still in Love
TTITLE8=Goodbye My Friend
TTITLE9=Ho-Hum (Acoustic Version)
TTITLE10=Valentines Song
TTITLE11=Goodnight
EXTD=
EXTT0=
EXTT1=
EXTT2=
EXTT3=
EXTT4=
EXTT5=
EXTT6=
EXTT7=
EXTT8=
EXTT9=
EXTT10=
EXTT11=
PLAYORDER=
